<svg width="73" height="20" viewBox="0 0 73 20" fill="none" xmlns="http://www.w3.org/2000/svg">
<rect width="73" height="20" rx="4" fill="#FCB415"/>
<path fill-rule="evenodd" clip-rule="evenodd" d="M27.0861 15.3595H28.2721L25.6758 8.49344H24.4748L21.8785 15.3595H23.0247L23.6874 13.5371H26.4283L27.0861 15.3595ZM25.018 9.74009H25.1027L26.1442 12.6426H23.9715L25.018 9.74009ZM31.4169 10.0922C30.6794 10.0922 30.0415 10.4443 29.7126 11.0343H29.6329V10.1778H28.6013V17.0392H29.6728V14.5744H29.7575C30.0415 15.1216 30.6545 15.4452 31.4269 15.4452C32.7973 15.4452 33.6694 14.4126 33.6694 12.7663C33.6694 11.12 32.7973 10.0922 31.4169 10.0922ZM31.113 14.5268C30.216 14.5268 29.6528 13.8512 29.6528 12.7711C29.6528 11.6862 30.216 11.0105 31.1179 11.0105C32.0249 11.0105 32.5681 11.6719 32.5681 12.7663C32.5681 13.8654 32.0249 14.5268 31.113 14.5268ZM36.9737 10.0922C36.2362 10.0922 35.5983 10.4443 35.2694 11.0343H35.1896V10.1778H34.1581V17.0392H35.2295V14.5744H35.3142C35.5983 15.1216 36.2112 15.4452 36.9837 15.4452C38.3541 15.4452 39.2262 14.4126 39.2262 12.7663C39.2262 11.12 38.3541 10.0922 36.9737 10.0922ZM36.6697 14.5268C35.7727 14.5268 35.2096 13.8512 35.2096 12.7711C35.2096 11.6862 35.7727 11.0105 36.6747 11.0105C37.5817 11.0105 38.1249 11.6719 38.1249 12.7663C38.1249 13.8654 37.5817 14.5268 36.6697 14.5268ZM41.4942 13.5133C41.5739 14.7409 42.6454 15.5261 44.24 15.5261C45.9443 15.5261 47.0108 14.7029 47.0108 13.3896C47.0108 12.3571 46.4028 11.7861 44.9277 11.4578L44.1354 11.2722C43.1985 11.0629 42.8198 10.7821 42.8198 10.292C42.8198 9.67347 43.4078 9.26903 44.2899 9.26903C45.1271 9.26903 45.7051 9.66396 45.8098 10.2968H46.8962C46.8314 9.14056 45.7649 8.3269 44.3048 8.3269C42.7351 8.3269 41.6886 9.14056 41.6886 10.3634C41.6886 11.3721 42.2816 11.9717 43.5822 12.2619L44.5091 12.476C45.461 12.6902 45.8796 13.0042 45.8796 13.5276C45.8796 14.1367 45.2218 14.5792 44.3248 14.5792C43.363 14.5792 42.6952 14.1652 42.6005 13.5133H41.4942ZM47.933 8.92168V10.2016H47.041V11.0629H47.933V13.9892C47.933 14.9884 48.4064 15.3881 49.5974 15.3881C49.8067 15.3881 50.0011 15.3643 50.1705 15.3357V14.484C50.021 14.4983 49.9363 14.5078 49.7719 14.5078C49.2386 14.5078 49.0044 14.2699 49.0044 13.7275V11.0629H50.2204V10.2016H49.0044V8.92168H47.933ZM52.8768 14.5506C51.9449 14.5506 51.4216 13.8987 51.4216 12.7663C51.4216 11.6434 51.9449 10.9867 52.8768 10.9867C53.8037 10.9867 54.3319 11.6434 54.3319 12.7663C54.3319 13.894 53.8037 14.5506 52.8768 14.5506ZM52.8768 15.4594C54.4615 15.4594 55.4333 14.4459 55.4333 12.7663C55.4333 11.0962 54.4565 10.0779 52.8768 10.0779C51.2921 10.0779 50.3154 11.0962 50.3154 12.7663C50.3154 14.4459 51.2871 15.4594 52.8768 15.4594ZM55.9219 15.3595H56.9934V12.3C56.9934 11.572 57.5664 11.0819 58.3737 11.0819C58.5532 11.0819 58.8821 11.1152 58.9668 11.1438V10.135C58.8522 10.1065 58.6478 10.0922 58.4934 10.0922C57.7857 10.0922 57.1877 10.4633 57.0332 10.9725H56.9535V10.1778H55.9219V15.3595ZM61.379 10.9487C62.1714 10.9487 62.6897 11.4768 62.7146 12.2905H59.9737C60.0335 11.4816 60.5867 10.9487 61.379 10.9487ZM62.7096 13.9606C62.5102 14.3651 62.0667 14.5887 61.4189 14.5887C60.5617 14.5887 60.0086 14.0129 59.9737 13.1041V13.047H63.8059V12.6902C63.8059 11.0629 62.8939 10.0779 61.384 10.0779C59.8541 10.0779 58.8823 11.1295 58.8823 12.7853C58.8823 14.4412 59.8342 15.4594 61.389 15.4594C62.6298 15.4594 63.4969 14.8885 63.7411 13.9606H62.7096Z" fill="black"/>
<path fill-rule="evenodd" clip-rule="evenodd" d="M22.8826 3.13426V6.40382H24.1189C25.1393 6.40382 25.7302 5.80338 25.7302 4.75884C25.7302 3.73017 25.1346 3.13426 24.1189 3.13426H22.8826ZM23.4141 3.59649H24.0596C24.7691 3.59649 25.1892 4.02699 25.1892 4.76564C25.1892 5.51562 24.7762 5.94159 24.0596 5.94159H23.4141V3.59649ZM27.6006 6.01863C27.1569 6.01863 26.9077 5.70822 26.9077 5.16895C26.9077 4.63422 27.1569 4.32154 27.6006 4.32154C28.042 4.32154 28.2935 4.63422 28.2935 5.16895C28.2935 5.70595 28.042 6.01863 27.6006 6.01863ZM27.6006 6.4514C28.3552 6.4514 28.818 5.96878 28.818 5.16895C28.818 4.37366 28.3528 3.88877 27.6006 3.88877C26.846 3.88877 26.3809 4.37366 26.3809 5.16895C26.3809 5.96878 26.8436 6.4514 27.6006 6.4514ZM32.817 3.93636H32.3068L31.8464 5.81924H31.8061L31.2745 3.93636H30.7857L30.2541 5.81924H30.2162L29.7534 3.93636H29.2361L29.948 6.40382H30.4725L31.004 4.58664H31.0444L31.5783 6.40382H32.1075L32.817 3.93636ZM33.4653 6.40382H33.9755V4.9605C33.9755 4.57531 34.227 4.33514 34.6376 4.33514C35.0173 4.33514 35.2024 4.53226 35.2024 4.92878V6.40382H35.7126V4.80643C35.7126 4.21958 35.3875 3.88877 34.8108 3.88877C34.4216 3.88877 34.1203 4.05418 33.9945 4.32834H33.9565V3.93636H33.4653V6.40382ZM36.5745 6.40382H37.0847V2.97339H36.5745V6.40382ZM39.0619 6.01863C38.6181 6.01863 38.3689 5.70822 38.3689 5.16895C38.3689 4.63422 38.6181 4.32154 39.0619 4.32154C39.5032 4.32154 39.7548 4.63422 39.7548 5.16895C39.7548 5.70595 39.5032 6.01863 39.0619 6.01863ZM39.0619 6.4514C39.8165 6.4514 40.2792 5.96878 40.2792 5.16895C40.2792 4.37366 39.8141 3.88877 39.0619 3.88877C38.3073 3.88877 37.8421 4.37366 37.8421 5.16895C37.8421 5.96878 38.3049 6.4514 39.0619 6.4514ZM41.8578 6.03449C41.5801 6.03449 41.3784 5.90534 41.3784 5.68329C41.3784 5.46578 41.5398 5.35022 41.8957 5.32756L42.527 5.28904V5.49523C42.527 5.80111 42.2422 6.03449 41.8578 6.03449ZM41.7273 6.4446C42.0666 6.4446 42.349 6.30412 42.5032 6.05715H42.5436V6.40382H43.0348V4.71806C43.0348 4.19692 42.6693 3.88877 42.0215 3.88877C41.4354 3.88877 41.0177 4.16067 40.9655 4.58438H41.4591C41.5161 4.40991 41.713 4.31021 41.9978 4.31021C42.3466 4.31021 42.527 4.45749 42.527 4.71806V4.93105L41.8269 4.96956C41.2123 5.00582 40.8658 5.26185 40.8658 5.70595C40.8658 6.15685 41.2289 6.4446 41.7273 6.4446ZM44.8269 6.4446C45.1828 6.4446 45.4842 6.28373 45.6385 6.0141H45.6788V6.40382H46.1677V2.97339H45.6575V4.32834H45.6195C45.4795 4.05644 45.1805 3.89557 44.8269 3.89557C44.1743 3.89557 43.7543 4.38952 43.7543 5.16896C43.7543 5.95066 44.1696 6.4446 44.8269 6.4446ZM44.9717 4.33287C45.3988 4.33287 45.667 4.65688 45.667 5.17122C45.667 5.68782 45.4012 6.0073 44.9717 6.0073C44.5398 6.0073 44.2811 5.69236 44.2811 5.16896C44.2811 4.65009 44.5422 4.33287 44.9717 4.33287ZM49.5953 6.01863C49.1515 6.01863 48.9023 5.70822 48.9023 5.16895C48.9023 4.63422 49.1515 4.32154 49.5953 4.32154C50.0366 4.32154 50.2882 4.63422 50.2882 5.16895C50.2882 5.70595 50.0366 6.01863 49.5953 6.01863ZM49.5953 6.4514C50.3499 6.4514 50.8126 5.96878 50.8126 5.16895C50.8126 4.37366 50.3475 3.88877 49.5953 3.88877C48.8407 3.88877 48.3755 4.37366 48.3755 5.16895C48.3755 5.96878 48.8383 6.4514 49.5953 6.4514ZM51.5464 6.40382H52.0566V4.9605C52.0566 4.57531 52.3081 4.33514 52.7186 4.33514C53.0983 4.33514 53.2834 4.53226 53.2834 4.92878V6.40382H53.7936V4.80643C53.7936 4.21958 53.4685 3.88877 52.8919 3.88877C52.5027 3.88877 52.2013 4.05418 52.0756 4.32834H52.0376V3.93636H51.5464V6.40382ZM56.2625 3.33818V3.94769H55.8377V4.3578H56.2625V5.75127C56.2625 6.22709 56.488 6.41741 57.0551 6.41741C57.1548 6.41741 57.2473 6.40609 57.328 6.39249V5.98691C57.2568 5.99371 57.2165 5.99824 57.1382 5.99824C56.8843 5.99824 56.7727 5.88495 56.7727 5.62665V4.3578H57.3517V3.94769H56.7727V3.33818H56.2625ZM58.0784 6.40382H58.5886V4.96277C58.5886 4.58891 58.8472 4.3374 59.2649 4.3374C59.6493 4.3374 59.8415 4.5368 59.8415 4.93105V6.40382H60.3517V4.81096C60.3517 4.22411 60.0195 3.89104 59.4381 3.89104C59.0489 3.89104 58.7499 4.05644 58.6242 4.33287H58.5838V2.97339H58.0784V6.40382ZM62.253 4.30342C62.6303 4.30342 62.8771 4.55492 62.889 4.94237H61.5838C61.6123 4.55719 61.8757 4.30342 62.253 4.30342ZM62.8866 5.73767C62.7917 5.93027 62.5805 6.03676 62.272 6.03676C61.8638 6.03676 61.6004 5.7626 61.5838 5.32983V5.30264H63.4087V5.1327C63.4087 4.3578 62.9744 3.88877 62.2554 3.88877C61.5269 3.88877 61.0641 4.38952 61.0641 5.17802C61.0641 5.96652 61.5174 6.4514 62.2578 6.4514C62.8486 6.4514 63.2615 6.1795 63.3778 5.73767H62.8866Z" fill="black"/>
<path fill-rule="evenodd" clip-rule="evenodd" d="M15.7142 10.0954C15.6986 8.43572 17.1375 7.6283 17.2033 7.59071C16.3884 6.4563 15.1253 6.3013 14.6815 6.28894C13.6207 6.18235 12.5917 6.89503 12.0513 6.89503C11.5001 6.89503 10.668 6.29924 9.77109 6.31675C8.61697 6.33374 7.53728 6.97175 6.94512 7.96249C5.72305 9.9826 6.63448 12.9512 7.80531 14.5841C8.391 15.3843 9.07538 16.2767 9.97117 16.2453C10.8475 16.2113 11.1749 15.7118 12.2325 15.7118C13.2804 15.7118 13.5878 16.2453 14.5013 16.2247C15.4419 16.2113 16.034 15.4219 16.5992 14.6145C17.2761 13.6989 17.5479 12.7952 17.5587 12.7488C17.5371 12.7421 15.7326 12.0846 15.7142 10.0954Z" fill="black"/>
<path fill-rule="evenodd" clip-rule="evenodd" d="M13.9885 5.21471C14.4598 4.65189 14.7823 3.88617 14.6928 3.10913C14.0106 3.13797 13.1574 3.5597 12.6661 4.11017C12.2314 4.59524 11.8431 5.39031 11.9434 6.138C12.7098 6.19258 13.4966 5.76879 13.9885 5.21471Z" fill="black"/>
</svg>
