<svg width="141" height="143" viewBox="0 0 141 143" fill="none" xmlns="http://www.w3.org/2000/svg">
<mask id="mask0" mask-type="alpha" maskUnits="userSpaceOnUse" x="43" y="1" width="19" height="19">
<path fill-rule="evenodd" clip-rule="evenodd" d="M43.4175 1H61.7135V19.4388H43.4175V1Z" fill="white"/>
</mask>
<g mask="url(#mask0)">
<path fill-rule="evenodd" clip-rule="evenodd" d="M56.1975 0.999756H43.4175V19.4388H61.7135V6.51576C61.7135 3.46876 59.2435 0.999756 56.1975 0.999756Z" fill="black"/>
</g>
<mask id="mask1" mask-type="alpha" maskUnits="userSpaceOnUse" x="0" y="1" width="141" height="142">
<path fill-rule="evenodd" clip-rule="evenodd" d="M0 142.11H140.394V1H0V142.11Z" fill="white"/>
</mask>
<g mask="url(#mask1)">
<path fill-rule="evenodd" clip-rule="evenodd" d="M36.6201 40.861H40.0181V1H36.6201V40.861Z" fill="black"/>
<path fill-rule="evenodd" clip-rule="evenodd" d="M53.8145 10.2194V19.4394H61.7135V22.8374H53.8145C53.8145 26.0524 56.4205 28.6584 59.6355 28.6584H72.1105V10.2194H53.8145Z" fill="black"/>
<path fill-rule="evenodd" clip-rule="evenodd" d="M22.71 136.546H70.256V126.642H22.71V136.546Z" fill="#CCCFCF"/>
<path fill-rule="evenodd" clip-rule="evenodd" d="M76.5401 49.5485H16.4741C13.1961 49.5485 10.5391 52.2055 10.5391 55.4825V131.766H82.4741V55.4825C82.4741 52.2055 79.8171 49.5485 76.5401 49.5485Z" fill="#FCB415"/>
<path fill-rule="evenodd" clip-rule="evenodd" d="M17.8389 142.11H27.5809V131.766H17.8389V142.11Z" fill="black"/>
<path fill-rule="evenodd" clip-rule="evenodd" d="M65.4331 142.11H75.1751V131.766H65.4331V142.11Z" fill="black"/>
<path fill-rule="evenodd" clip-rule="evenodd" d="M73.8396 106.065H19.1746C14.4056 106.065 10.5396 102.199 10.5396 97.4305V57.4915H82.4745V97.4305C82.4745 102.199 78.6086 106.065 73.8396 106.065Z" fill="black"/>
<path fill-rule="evenodd" clip-rule="evenodd" d="M69.2394 131.766L69.2374 131.757C68.6004 128.668 65.9904 126.463 62.9714 126.463H30.0424C27.0234 126.463 24.4134 128.668 23.7764 131.757L23.7744 131.766H69.2394Z" fill="black"/>
<path d="M30.2695 112.85H62.7445" stroke="black" stroke-width="1.784"/>
<path d="M33.5171 120.189H59.4971" stroke="black" stroke-width="1.784"/>
<path fill-rule="evenodd" clip-rule="evenodd" d="M0 96.104H6.364V81.189H0V96.104Z" fill="black"/>
<path d="M2.71777 81.1892C2.71777 81.1892 4.70677 74.6272 10.5398 74.6272" stroke="black" stroke-width="1.784"/>
<path fill-rule="evenodd" clip-rule="evenodd" d="M86.6509 96.104H93.0149V81.189H86.6509V96.104Z" fill="black"/>
<path d="M90.2966 81.1892C90.2966 81.1892 88.3076 74.6272 82.4746 74.6272" stroke="black" stroke-width="1.784"/>
<path d="M46.6748 57.4915V107.13" stroke="white" stroke-width="1.784"/>
<path fill-rule="evenodd" clip-rule="evenodd" d="M10.5396 111.433L24.5306 112.545C25.6216 112.632 26.5066 113.461 26.6636 114.543L27.5486 120.645C27.7286 121.891 26.6756 122.967 25.4266 122.814L10.5396 120.991" fill="black"/>
<path fill-rule="evenodd" clip-rule="evenodd" d="M82.4744 111.433L68.4834 112.545C67.3924 112.632 66.5074 113.461 66.3504 114.543L65.4654 120.645C65.2854 121.891 66.3384 122.967 67.5874 122.814L82.4744 120.991" fill="black"/>
<path fill-rule="evenodd" clip-rule="evenodd" d="M20.3359 117.336C20.3359 116.135 21.3089 115.162 22.5099 115.162C23.7109 115.162 24.6839 116.135 24.6839 117.336C24.6839 118.537 23.7109 119.51 22.5099 119.51C21.3089 119.51 20.3359 118.537 20.3359 117.336Z" fill="white"/>
<path fill-rule="evenodd" clip-rule="evenodd" d="M13.1265 116.792C13.1265 115.291 14.3435 114.074 15.8445 114.074C17.3455 114.074 18.5625 115.291 18.5625 116.792C18.5625 118.293 17.3455 119.51 15.8445 119.51C14.3435 119.51 13.1265 118.293 13.1265 116.792Z" fill="white"/>
<path fill-rule="evenodd" clip-rule="evenodd" d="M72.6781 117.336C72.6781 116.135 71.7051 115.162 70.5041 115.162C69.3031 115.162 68.3291 116.135 68.3291 117.336C68.3291 118.537 69.3031 119.51 70.5041 119.51C71.7051 119.51 72.6781 118.537 72.6781 117.336Z" fill="white"/>
<path fill-rule="evenodd" clip-rule="evenodd" d="M79.8877 116.792C79.8877 115.291 78.6707 114.074 77.1697 114.074C75.6687 114.074 74.4517 115.291 74.4517 116.792C74.4517 118.293 75.6687 119.51 77.1697 119.51C78.6707 119.51 79.8877 118.293 79.8877 116.792Z" fill="white"/>
<path fill-rule="evenodd" clip-rule="evenodd" d="M112.144 98.3828C112.144 96.0558 114.03 94.1698 116.357 94.1698C118.684 94.1698 120.57 96.0558 120.57 98.3828C120.57 100.71 118.684 102.596 116.357 102.596C114.03 102.596 112.144 100.71 112.144 98.3828Z" stroke="black" stroke-width="1.784"/>
<path d="M113.357 120.544V142.11" stroke="black" stroke-width="1.784"/>
<path d="M119.357 120.544V142.11" stroke="black" stroke-width="1.784"/>
<path d="M120.473 106.701L128.173 94.1698" stroke="black" stroke-width="1.784"/>
<path d="M112.242 106.701L104.542 94.1698" stroke="black" stroke-width="1.784"/>
<path fill-rule="evenodd" clip-rule="evenodd" d="M124.796 131.492H107.917L112.437 106.701H120.374L124.796 131.492Z" fill="black"/>
<path fill-rule="evenodd" clip-rule="evenodd" d="M125.731 59.5768C122.712 59.1938 120.574 60.8478 119.373 62.1818L119.372 62.1778C118.373 62.8668 117.711 61.9708 117.711 61.9708L117.709 61.9718C116.88 60.3818 115.222 58.2448 112.202 57.8618C107.286 57.2388 105.798 61.9568 105.64 63.2028C105.482 64.4478 105.526 67.2228 108.691 71.8178C111.845 76.3968 114.22 80.9158 116.101 81.1828V81.1838C116.107 81.1848 116.113 81.1848 116.119 81.1858C116.125 81.1858 116.131 81.1878 116.138 81.1888V81.1878C118.025 81.3978 121.396 77.6658 125.649 73.9668C129.859 70.3058 130.595 67.6308 130.753 66.3848C130.911 65.1398 130.646 60.1998 125.731 59.5768Z" fill="#334D9E"/>
<path fill-rule="evenodd" clip-rule="evenodd" d="M102.49 64.7459L103.661 65.9259C102.856 66.2129 101.838 67.0469 101.546 67.8339C101.623 67.7979 101.838 67.8029 102.027 67.8269C102.926 67.9399 103.528 68.6809 103.405 69.6499C103.282 70.6199 102.352 71.3269 101.336 71.1979C100.225 71.0579 99.338 70.0969 99.524 68.6319C99.738 66.9399 100.899 65.5529 102.49 64.7459ZM97.668 64.1349L98.839 65.3149C98.034 65.6019 97.04 66.4379 96.724 67.2229C96.825 67.1899 97.017 67.1919 97.205 67.2149C98.104 67.3289 98.73 68.0729 98.607 69.0419C98.484 70.0119 97.53 70.7159 96.514 70.5869C95.403 70.4469 94.516 69.4859 94.702 68.0209C94.916 66.3289 96.077 64.9409 97.668 64.1349Z" fill="black"/>
<path fill-rule="evenodd" clip-rule="evenodd" d="M137.403 75.7695L136.232 74.5905C137.037 74.3025 138.055 73.4685 138.347 72.6815C138.27 72.7175 138.055 72.7125 137.866 72.6885C136.967 72.5755 136.365 71.8355 136.487 70.8655C136.61 69.8955 137.541 69.1885 138.557 69.3175C139.668 69.4575 140.555 70.4185 140.369 71.8835C140.155 73.5755 138.994 74.9625 137.403 75.7695ZM132.605 75.1615L131.434 73.9825C132.238 73.6945 133.233 72.8575 133.525 72.0705C133.449 72.1065 133.256 72.1045 133.068 72.0805C132.169 71.9665 131.543 71.2245 131.666 70.2545C131.789 69.2845 132.743 68.5805 133.759 68.7085C134.87 68.8495 135.757 69.8095 135.571 71.2755C135.356 72.9675 134.196 74.3545 132.605 75.1615Z" fill="black"/>
</g>
</svg>
