<svg width="14" height="14" viewBox="0 0 14 14" fill="none" xmlns="http://www.w3.org/2000/svg">
<path fill-rule="evenodd" clip-rule="evenodd" d="M1.4 0H12.6C13.37 0 14 0.63 14 1.4V12.6C14 13.37 13.37 14 12.6 14H1.4C0.63 14 0 13.37 0 12.6V1.4C0 0.63 0.63 0 1.4 0ZM9.8 7C9.8 5.46 8.54 4.2 7 4.2C5.46 4.2 4.2 5.46 4.2 7C4.2 8.54 5.46 9.8 7 9.8C8.54 9.8 9.8 8.54 9.8 7ZM1.75 12.6C1.54 12.6 1.4 12.46 1.4 12.25V6.3H2.87C2.8 6.51 2.8 6.79 2.8 7C2.8 9.31 4.69 11.2 7 11.2C9.31 11.2 11.2 9.31 11.2 7C11.2 6.79 11.2 6.51 11.13 6.3H12.6V12.25C12.6 12.46 12.46 12.6 12.25 12.6H1.75ZM12.25 3.5C12.46 3.5 12.6 3.36 12.6 3.15V1.75C12.6 1.54 12.46 1.4 12.25 1.4H10.85C10.64 1.4 10.5 1.54 10.5 1.75V3.15C10.5 3.36 10.64 3.5 10.85 3.5H12.25Z" fill="#FCB415"/>
</svg>
