<svg width="73" height="20" viewBox="0 0 73 20" fill="none" xmlns="http://www.w3.org/2000/svg">
<path fill-rule="evenodd" clip-rule="evenodd" d="M0 4C0 1.79086 1.79086 0 4 0H69C71.2091 0 73 1.79086 73 4V15.9635C73 18.1726 71.2091 19.9635 69 19.9635H4C1.79086 19.9635 0 18.1726 0 15.9635V4Z" fill="#FCB415"/>
<path fill-rule="evenodd" clip-rule="evenodd" d="M40.1822 4.99989C40.1822 5.90363 39.3962 6.63625 38.4267 6.63625C37.4571 6.63625 36.6712 5.90363 36.6712 4.99989C36.6712 4.09615 37.4571 3.36353 38.4267 3.36353C39.3962 3.36353 40.1822 4.09615 40.1822 4.99989ZM39.6458 4.99989C39.6458 5.62748 39.1 6.13625 38.4267 6.13625C37.7534 6.13625 37.2076 5.62748 37.2076 4.99989C37.2076 4.37229 37.7534 3.86352 38.4267 3.86352C39.1 3.86352 39.6458 4.37229 39.6458 4.99989Z" fill="black"/>
<path fill-rule="evenodd" clip-rule="evenodd" d="M27.9423 3.5H25.9917V3.54545V3.86364V4.81819V5.18182V6.18182V6.54545V6.54546H27.9423V6.18182H26.5281V5.18182H27.796V4.81819H26.5281V3.86364H27.9423V3.5Z" fill="black"/>
<path fill-rule="evenodd" clip-rule="evenodd" d="M29.3077 3.5H28.4787V3.86364H29.3077V6.54545H29.8441V3.86364H30.6731V3.5H29.8441H29.3077Z" fill="black"/>
<path fill-rule="evenodd" clip-rule="evenodd" d="M34.0866 3.5H33.2576V3.86364H34.0866V6.54545H34.623V3.86364H35.452V3.5H34.623H34.0866Z" fill="black"/>
<rect x="32.2335" y="3.5" width="0.536415" height="3.04545" fill="black"/>
<path fill-rule="evenodd" clip-rule="evenodd" d="M40.6211 3.5H40.7186H41.1575H41.2551L42.718 5.72839V3.5H43.2544V6.54544L43.2544 6.54545H43.2544H42.718H42.718L41.1575 4.1685V6.54545H40.6211V3.5Z" fill="black"/>
<path fill-rule="evenodd" clip-rule="evenodd" d="M23.9817 4.87109H25.4504L25.4359 5.30436H23.9817V4.87109Z" fill="black"/>
<path fill-rule="evenodd" clip-rule="evenodd" d="M23.9599 6.61782C24.9275 6.62594 25.7345 5.99064 25.5731 4.88732C25.5731 4.88194 25.5731 4.87657 25.5731 4.87121H25.144C25.1475 4.91728 25.1487 4.96468 25.1476 5.01338C25.1486 5.8014 24.6611 6.17102 23.9744 6.17102C23.2878 6.17102 22.7312 5.65273 22.7312 5.01338C22.7312 4.37404 23.2878 3.85575 23.9744 3.85575C24.318 3.85575 24.6157 3.96514 24.8253 4.1647L25.1614 3.85177C24.8755 3.57075 24.4574 3.40894 23.9599 3.40894C23.0082 3.40894 22.2368 4.12727 22.2368 5.01338C22.2368 5.89949 23.0082 6.61655 23.9599 6.61782Z" fill="black"/>
<path fill-rule="evenodd" clip-rule="evenodd" d="M55.4307 8.95459H52.666V12.8664H55.4307C55.4307 12.8664 57.0222 12.614 57.0222 10.9105C57.0222 9.20699 55.4307 8.95459 55.4307 8.95459ZM55.0792 9.90081H53.2024V12H55.0792C55.0792 12 55.9333 12 55.9333 10.9504C55.9333 9.90081 55.0792 9.90081 55.0792 9.90081Z" fill="black"/>
<rect x="52.4222" y="8.95459" width="0.975292" height="6.36364" fill="black"/>
<rect x="57.5913" y="8.95459" width="0.975304" height="6.36364" fill="black"/>
<path fill-rule="evenodd" clip-rule="evenodd" d="M61.172 11.0908C59.808 11.0908 59.3534 11.9644 59.3534 11.9644L60.1658 12.4119C60.1658 12.4119 60.3619 11.9644 61.2499 11.9644C61.8964 11.9644 62.112 12.4195 62.1814 12.6671V12.854C61.8981 12.7256 61.2851 12.5234 60.4097 12.6448C59.2225 12.8093 59.2462 13.8101 59.25 13.9681L59.2502 13.9832C59.2502 14.0723 59.251 15.3941 60.805 15.3036C61.4833 15.2641 61.9128 15.0697 62.1814 14.8631V15.3161H63.1567V12.5529L63.1568 12.5485C63.1568 12.1812 62.8681 11.0908 61.172 11.0908ZM60.1675 14.0119C60.2329 13.028 62.1118 13.5 62.1118 13.5C62.1118 13.5 62.137 13.6041 62.137 13.8259C61.9701 14.5233 60.1022 14.9958 60.1675 14.0119Z" fill="black"/>
<path fill-rule="evenodd" clip-rule="evenodd" d="M65.4745 13.9972L64.2233 11.2273H63.248L64.9868 15.0768L64.077 17.0909H65.0523L67.6909 11.2493H66.7156L65.4745 13.9972Z" fill="black"/>
<path fill-rule="evenodd" clip-rule="evenodd" d="M48.176 11.0908C49.8112 11.0908 50.2388 12.7147 50.2388 12.7147L47.1542 13.903C47.1542 13.903 47.3534 14.5602 48.2808 14.5646C49.007 14.568 49.417 13.9646 49.417 13.9646L50.1995 14.4586C50.1995 14.4586 49.568 15.4107 48.2747 15.4107C46.6853 15.4107 45.9853 14.1152 45.9853 13.2739C45.9853 12.4633 46.5409 11.0908 48.176 11.0908ZM48.0819 11.9292C48.6771 11.8277 49.0652 12.3781 49.0652 12.3781L46.9813 13.1709C46.9813 13.1709 46.8229 12.1439 48.0819 11.9292Z" fill="black"/>
<rect x="44.5223" y="8.95459" width="1.0318" height="6.35027" fill="black"/>
<path fill-rule="evenodd" clip-rule="evenodd" d="M42.8711 11.6251V11.2288L43.8249 11.2365V15.2433C43.8249 16.2671 43.171 17.3477 41.6316 17.3477C40.0922 17.3477 39.595 16.0764 39.595 16.0764L40.471 15.733C40.471 15.733 40.7382 16.5165 41.6772 16.5165C42.7464 16.5165 42.8712 15.6097 42.8712 15.2994V14.8645C42.8712 14.8645 42.5013 15.4043 41.5823 15.4043C40.586 15.4043 39.402 14.6086 39.402 13.2521C39.402 11.8956 40.5169 11.1197 41.5938 11.0915C42.4565 11.0689 42.8711 11.6251 42.8711 11.6251ZM42.9232 13.2635C42.9232 13.9961 42.3593 14.59 41.6637 14.59C40.9682 14.59 40.4043 13.9961 40.4043 13.2635C40.4043 12.5309 40.9682 11.937 41.6637 11.937C42.3593 11.937 42.9232 12.5309 42.9232 13.2635Z" fill="black"/>
<path fill-rule="evenodd" clip-rule="evenodd" d="M38.9736 13.2499C38.9736 14.4423 37.9342 15.409 36.652 15.409C35.3699 15.409 34.3305 14.4423 34.3305 13.2499C34.3305 12.0575 35.3699 11.0908 36.652 11.0908C37.9342 11.0908 38.9736 12.0575 38.9736 13.2499ZM37.9418 13.2499C37.9418 13.9747 37.3576 14.5623 36.6369 14.5623C35.9162 14.5623 35.3319 13.9747 35.3319 13.2499C35.3319 12.5251 35.9162 11.9375 36.6369 11.9375C37.3576 11.9375 37.9418 12.5251 37.9418 13.2499Z" fill="black"/>
<path fill-rule="evenodd" clip-rule="evenodd" d="M33.9508 13.2499C33.9508 14.4423 32.9114 15.409 31.6292 15.409C30.3471 15.409 29.3077 14.4423 29.3077 13.2499C29.3077 12.0575 30.3471 11.0908 31.6292 11.0908C32.9114 11.0908 33.9508 12.0575 33.9508 13.2499ZM32.919 13.2499C32.919 13.9747 32.3348 14.5623 31.6141 14.5623C30.8934 14.5623 30.3091 13.9747 30.3091 13.2499C30.3091 12.5251 30.8934 11.9375 31.6141 11.9375C32.3348 11.9375 32.919 12.5251 32.919 13.2499Z" fill="black"/>
<path fill-rule="evenodd" clip-rule="evenodd" d="M25.6346 11.7754H28.6997L28.6694 12.6785H25.6346V11.7754Z" fill="black"/>
<path fill-rule="evenodd" clip-rule="evenodd" d="M25.5891 15.4162C27.6084 15.4332 29.2926 14.1089 28.9558 11.809C28.9558 11.7978 28.9558 11.7866 28.9557 11.7754H28.0603C28.0676 11.8714 28.0701 11.9703 28.0677 12.0718C28.0698 13.7144 27.0524 14.4849 25.6194 14.4849C24.1864 14.4849 23.0247 13.4045 23.0247 12.0718C23.0247 10.739 24.1864 9.65866 25.6194 9.65866C26.3363 9.65866 26.9577 9.88671 27.3951 10.3027L28.0965 9.6504C27.4999 9.06461 26.6272 8.72729 25.5891 8.72729C23.603 8.72729 21.993 10.2247 21.993 12.0718C21.993 13.9189 23.603 15.4136 25.5891 15.4162Z" fill="black"/>
<path fill-rule="evenodd" clip-rule="evenodd" d="M14.8876 8.06157C16.4073 8.87049 16.4073 11.0484 14.8877 11.8573L8.49773 15.2588C7.06566 16.0211 5.33747 14.9832 5.33747 13.3609L5.33747 6.55808C5.33747 4.93576 7.06564 3.89791 8.49771 4.66021L14.8876 8.06157Z" fill="black"/>
<mask id="mask0" mask-type="alpha" maskUnits="userSpaceOnUse" x="5" y="4" width="12" height="12">
<path fill-rule="evenodd" clip-rule="evenodd" d="M14.8876 8.06157C16.4073 8.87049 16.4073 11.0484 14.8877 11.8573L8.49773 15.2588C7.06566 16.0211 5.33747 14.9832 5.33747 13.3609L5.33747 6.55808C5.33747 4.93576 7.06564 3.89791 8.49771 4.66021L14.8876 8.06157Z" fill="white"/>
</mask>
<g mask="url(#mask0)">
</g>
</svg>
