<svg width="31" height="31" viewBox="0 0 31 31" fill="none" xmlns="http://www.w3.org/2000/svg">
<path d="M30.9063 11.6931C30.6789 10.9595 30.0757 10.4245 29.351 10.3131L21.0443 9.04445L17.3284 1.13081C17.0027 0.437733 16.3339 0 15.5996 0C14.8653 0 14.1966 0.437733 13.8708 1.13081L10.1569 9.04445L1.85021 10.3131C1.12361 10.4245 0.520364 10.9595 0.294869 11.6931C0.0674462 12.4268 0.256323 13.2313 0.782478 13.7703L6.79376 19.931L5.37526 28.631C5.25191 29.3909 5.54871 30.159 6.14232 30.6129C6.47575 30.8703 6.87278 31 7.27366 31C7.5801 31 7.88847 30.923 8.16985 30.7669L15.5996 26.6591L23.0294 30.7669C23.3108 30.923 23.6192 31 23.9256 31C24.3246 31 24.7235 30.8703 25.0589 30.6129C25.6525 30.159 25.9493 29.3909 25.8259 28.631L24.4074 19.931L30.4187 13.7703C30.9429 13.2333 31.1318 12.4268 30.9063 11.6931Z" fill="#FCB415"/>
</svg>
