<svg width="17" height="14" viewBox="0 0 17 14" fill="none" xmlns="http://www.w3.org/2000/svg">
<path d="M16.8269 1.9913C16.2262 2.25481 15.5861 2.42947 14.9188 2.51428C15.6053 2.10438 16.1293 1.46024 16.3756 0.683846C15.7355 1.06548 15.0288 1.33505 14.2756 1.48548C13.6678 0.838317 12.8016 0.4375 11.8566 0.4375C10.0231 0.4375 8.54707 1.92567 8.54707 3.75005C8.54707 4.01255 8.56928 4.26495 8.6238 4.50524C5.87058 4.37096 3.43438 3.05139 1.79779 1.04125C1.51207 1.53697 1.34447 2.10438 1.34447 2.71519C1.34447 3.86212 1.9351 4.8788 2.81548 5.4674C2.28342 5.45731 1.76145 5.30284 1.31923 5.05952C1.31923 5.06962 1.31923 5.08274 1.31923 5.09587C1.31923 6.70519 2.46717 8.04192 3.9725 8.34986C3.70294 8.42356 3.40914 8.45889 3.10423 8.45889C2.89222 8.45889 2.67818 8.44678 2.47726 8.40236C2.90635 9.71385 4.12395 10.678 5.57173 10.7093C4.445 11.5907 3.01438 12.1218 1.46563 12.1218C1.19404 12.1218 0.933561 12.1097 0.67308 12.0763C2.14005 13.0224 3.87861 13.5625 5.75347 13.5625C11.8475 13.5625 15.1792 8.51442 15.1792 4.13875C15.1792 3.99236 15.1742 3.85101 15.1671 3.71067C15.8244 3.24423 16.3766 2.66168 16.8269 1.9913Z" fill="#FCB415"/>
</svg>
